<?xml version="1.0" standalone="no"?>
<!DOCTYPE svg PUBLIC "-//W3C//DTD SVG 20010904//EN"
 "http://www.w3.org/TR/2001/REC-SVG-20010904/DTD/svg10.dtd">
<svg version="1.0" xmlns="http://www.w3.org/2000/svg"
 width="1000.000000pt" height="699.000000pt" viewBox="0 0 1000.000000 699.000000"
 preserveAspectRatio="xMidYMid meet">

<g transform="translate(0.000000,699.000000) scale(0.100000,-0.100000)"
fill="#000000" stroke="none">
<path d="M6010 6981 c0 -5 -18 -11 -40 -15 -23 -3 -49 -10 -58 -15 -39 -21
-91 -41 -105 -41 -9 0 -19 -4 -22 -10 -3 -5 -17 -10 -30 -10 -13 0 -26 -4 -29
-9 -4 -5 -24 -12 -46 -16 -22 -4 -42 -11 -46 -16 -3 -5 -16 -9 -30 -9 -13 0
-24 -4 -24 -9 0 -5 -20 -12 -45 -15 -24 -4 -47 -11 -50 -17 -4 -5 -17 -9 -31
-9 -13 0 -24 -4 -24 -9 0 -5 -20 -12 -45 -15 -24 -4 -47 -11 -50 -17 -4 -5
-17 -9 -31 -9 -13 0 -24 -4 -24 -9 0 -5 -18 -11 -40 -15 -22 -3 -56 -15 -75
-26 -20 -11 -40 -20 -46 -20 -10 0 -65 -22 -99 -40 -9 -4 -31 -11 -50 -14 -33
-7 -64 -18 -101 -36 -9 -5 -34 -12 -55 -16 -22 -3 -43 -10 -49 -14 -5 -4 -25
-11 -44 -15 -19 -4 -50 -16 -68 -26 -18 -10 -51 -22 -73 -25 -22 -4 -43 -11
-46 -15 -3 -5 -13 -9 -23 -9 -10 0 -26 -10 -37 -22 -18 -21 -62 -105 -80 -153
-4 -11 -8 -22 -9 -25 -2 -3 -6 -15 -10 -27 -4 -13 -11 -23 -15 -23 -9 0 -23
-40 -20 -59 1 -8 -2 -17 -7 -20 -11 -7 -43 -75 -43 -90 0 -6 -4 -11 -10 -11
-5 0 -10 -8 -10 -19 0 -10 -18 -54 -40 -97 -22 -43 -40 -84 -40 -90 0 -16 -24
-64 -32 -64 -5 0 -8 -5 -8 -11 0 -6 -7 -26 -15 -45 -8 -19 -22 -49 -30 -68 -8
-19 -15 -39 -15 -45 0 -6 -3 -11 -7 -11 -9 0 -33 -48 -33 -64 0 -6 -18 -47
-40 -90 -22 -43 -40 -87 -40 -97 0 -11 -4 -19 -10 -19 -5 0 -10 -5 -10 -11 0
-13 -31 -82 -41 -89 -3 -3 -9 -22 -13 -42 -4 -21 -10 -38 -14 -38 -7 0 -42
-73 -42 -88 0 -15 -25 -62 -32 -62 -5 0 -8 -5 -8 -11 0 -13 -31 -82 -41 -89
-3 -3 -9 -22 -13 -42 -4 -21 -10 -38 -14 -38 -7 0 -42 -73 -42 -89 0 -4 -16
-38 -35 -75 -19 -37 -35 -76 -35 -87 0 -10 -4 -19 -10 -19 -5 0 -10 -5 -10
-11 0 -16 -32 -83 -43 -90 -5 -4 -7 -12 -3 -17 6 -10 -10 -49 -25 -62 -3 -3
-9 -14 -14 -25 -4 -11 -9 -22 -10 -25 -2 -3 -6 -15 -10 -27 -4 -13 -11 -23
-16 -23 -5 0 -9 -9 -9 -20 0 -11 -15 -49 -34 -84 -19 -35 -32 -66 -30 -69 2
-2 -12 -34 -31 -71 -19 -37 -35 -76 -35 -87 0 -10 -4 -19 -10 -19 -5 0 -10 -4
-10 -10 0 -16 -34 -90 -42 -90 -3 0 -9 -13 -13 -30 -4 -16 -17 -51 -31 -77
l-24 -48 0 -943 0 -942 196 2 c185 3 198 4 208 23 6 11 14 22 17 25 10 9 22
45 20 59 -1 8 1 17 6 20 10 7 47 81 48 96 0 6 10 31 23 57 12 26 22 51 22 55
0 15 25 63 32 63 4 0 10 17 14 37 4 21 10 40 13 43 10 7 41 76 41 89 0 6 9 26
20 46 11 20 20 40 20 46 0 13 31 82 41 89 3 3 9 22 13 43 4 20 10 37 14 37 8
0 32 48 32 63 0 12 32 81 41 87 3 3 9 22 13 43 4 20 10 37 14 37 9 0 32 49 32
68 0 7 11 33 25 58 14 25 25 49 25 55 0 13 31 82 41 89 3 3 9 22 13 43 4 20
11 37 16 37 6 0 10 8 10 19 0 10 11 39 25 65 14 26 25 56 25 67 0 10 5 19 10
19 6 0 10 5 10 11 0 6 7 26 15 45 8 19 22 49 30 68 8 19 15 39 15 45 0 6 5 11
10 11 6 0 10 8 10 19 0 10 11 39 25 65 14 26 25 56 25 67 0 10 4 19 10 19 5 0
10 3 9 8 -1 4 2 17 6 30 15 46 25 19 25 -66 0 -49 2 -91 5 -94 3 -3 6 -187 5
-408 0 -288 3 -406 11 -416 8 -10 8 -18 0 -27 -8 -10 -7 -17 1 -25 8 -8 8 -15
0 -25 -9 -10 -8 -17 1 -26 9 -9 9 -14 -2 -21 -13 -7 -13 -11 0 -26 11 -13 11
-18 2 -21 -16 -6 -18 -189 -3 -198 8 -5 7 -12 -1 -22 -10 -12 -10 -16 1 -23
12 -7 12 -11 0 -25 -12 -14 -12 -18 0 -25 12 -7 12 -11 0 -25 -12 -14 -12 -18
0 -25 12 -7 12 -11 0 -25 -12 -14 -12 -18 1 -25 11 -7 11 -12 1 -22 -15 -15
-16 -130 0 -146 8 -8 8 -15 0 -25 -9 -10 -9 -16 0 -25 8 -8 8 -15 0 -25 -9
-10 -9 -16 0 -25 8 -8 8 -15 0 -25 -9 -10 -9 -16 0 -25 8 -8 8 -15 0 -25 -9
-10 -9 -16 0 -25 8 -8 8 -15 0 -25 -9 -10 -8 -17 1 -26 9 -11 9 -14 0 -18 -17
-6 -17 -65 -1 -81 10 -10 10 -15 -1 -22 -11 -6 -12 -12 -3 -22 8 -11 11 -226
12 -813 0 -439 3 -801 6 -804 3 -3 8 0 12 6 4 6 26 14 49 18 24 4 45 11 49 16
3 5 16 9 30 9 13 0 24 4 24 9 0 5 20 12 45 15 24 4 47 11 50 17 4 5 17 9 31 9
13 0 24 4 24 9 0 5 20 12 45 15 24 4 47 11 50 17 4 5 17 9 31 9 13 0 24 4 24
9 0 5 18 11 40 15 23 3 49 10 58 15 37 19 69 30 102 37 19 3 41 10 50 14 37
18 67 29 100 36 19 3 41 10 50 14 37 18 67 29 100 36 32 6 41 10 90 34 11 6
28 10 38 10 10 0 27 7 38 15 10 8 29 15 41 15 12 0 24 4 27 9 4 5 24 12 46 16
22 4 42 11 46 16 3 5 16 9 30 9 l24 0 0 2214 c0 1762 -3 2216 -12 2220 -10 5
-10 7 0 12 14 7 16 34 2 34 -5 0 -10 7 -10 15 0 8 6 15 13 15 17 0 57 -33 57
-47 0 -5 11 -20 25 -33 14 -13 25 -28 25 -33 0 -5 14 -26 30 -46 17 -20 34
-41 38 -47 20 -30 33 -51 41 -69 5 -11 23 -33 40 -49 17 -17 31 -35 31 -42 0
-6 7 -14 15 -18 8 -3 15 -12 15 -19 0 -8 9 -22 20 -32 11 -10 20 -23 20 -30 0
-6 14 -24 30 -40 17 -16 30 -33 30 -38 0 -5 8 -17 18 -26 18 -17 38 -45 49
-71 3 -8 24 -35 45 -60 52 -60 58 -68 58 -78 0 -4 16 -23 35 -42 19 -18 33
-36 30 -38 -2 -3 11 -24 30 -47 19 -23 35 -46 35 -52 0 -5 14 -22 31 -39 17
-16 35 -38 40 -49 15 -34 33 -58 57 -78 12 -10 22 -24 22 -31 0 -7 11 -23 25
-36 14 -13 25 -29 25 -35 0 -6 11 -22 25 -35 14 -13 25 -27 25 -32 0 -5 16
-22 35 -39 19 -17 35 -37 35 -43 0 -7 11 -23 25 -36 14 -13 25 -30 25 -37 0
-8 7 -16 15 -19 8 -4 15 -12 15 -18 0 -15 42 -56 57 -56 6 0 14 -8 17 -17 10
-28 31 -62 55 -87 11 -12 21 -27 21 -33 0 -7 10 -20 23 -30 23 -20 41 -45 56
-78 5 -11 18 -29 30 -39 11 -11 21 -25 21 -32 0 -7 3 -14 8 -16 11 -5 82 -95
82 -105 0 -5 11 -20 25 -33 14 -13 25 -29 25 -36 0 -7 6 -17 13 -21 16 -10 67
-79 67 -91 0 -4 11 -19 25 -32 14 -13 25 -28 25 -34 0 -6 10 -20 23 -31 23
-21 41 -47 56 -80 5 -11 18 -29 30 -39 11 -11 21 -24 21 -29 0 -5 10 -20 23
-31 24 -24 42 -50 56 -81 5 -11 18 -29 30 -39 11 -11 21 -25 21 -33 0 -7 4
-13 9 -13 5 0 12 -8 15 -18 10 -27 31 -61 55 -86 11 -12 21 -27 21 -32 0 -5
11 -18 25 -28 14 -10 25 -24 25 -31 0 -6 9 -20 20 -30 11 -10 20 -22 20 -28 0
-8 16 -29 78 -103 22 -26 40 -54 51 -79 5 -11 18 -29 30 -39 11 -11 21 -23 21
-28 0 -5 10 -19 23 -31 13 -12 27 -29 30 -37 7 -14 19 -33 62 -96 11 -16 30
-38 42 -49 13 -11 23 -25 23 -31 0 -6 11 -21 25 -34 14 -13 25 -28 25 -33 0
-5 11 -23 25 -41 14 -17 29 -36 33 -42 23 -32 33 -51 39 -68 5 -15 12 -17 47
-12 23 4 45 11 50 17 6 5 20 9 32 9 13 0 25 4 28 9 4 5 24 12 46 16 22 4 42
11 46 16 3 5 16 9 30 9 13 0 24 4 24 9 0 5 20 12 45 15 24 4 47 11 50 17 4 5
17 9 31 9 13 0 24 4 24 9 0 5 15 12 33 16 31 6 63 18 99 36 9 5 35 12 58 15
22 4 40 10 40 15 0 5 11 9 24 9 14 0 27 4 31 9 3 6 26 13 50 17 25 3 45 10 45
15 0 5 11 9 24 9 14 0 28 5 31 10 3 6 13 10 22 10 13 0 63 19 103 40 9 4 30
11 48 14 17 4 34 12 37 17 4 5 17 9 31 9 13 0 24 4 24 9 0 5 20 12 45 15 24 4
47 11 50 17 4 5 17 9 31 9 13 0 24 4 24 9 0 5 20 12 45 15 24 4 47 11 50 17 4
5 17 9 31 9 13 0 24 4 24 9 0 5 18 11 40 15 33 5 40 10 40 29 0 13 -15 38 -35
57 -19 19 -35 38 -35 43 0 5 -11 21 -24 35 -13 15 -42 48 -65 73 -22 25 -41
51 -41 56 0 5 -11 20 -25 33 -14 13 -25 29 -25 35 0 7 -16 26 -35 42 -19 17
-35 35 -35 40 0 5 -11 20 -25 33 -13 12 -22 26 -20 30 3 4 -4 15 -15 25 -11
10 -20 24 -20 32 0 7 -7 13 -15 13 -8 0 -15 6 -15 13 0 7 -9 19 -19 27 -11 7
-18 17 -16 20 2 4 -11 22 -30 40 -19 19 -35 39 -35 45 0 6 -11 22 -25 35 -14
13 -25 28 -25 33 0 5 -15 24 -32 41 -34 33 -52 57 -67 91 -5 11 -23 33 -40 49
-17 17 -31 36 -31 43 0 8 -7 16 -15 19 -8 4 -15 11 -15 18 0 6 -23 33 -50 61
-28 27 -50 55 -50 61 0 6 -11 21 -25 34 -14 13 -25 29 -25 36 0 6 -7 14 -15
18 -8 3 -15 11 -15 19 0 7 -16 28 -35 47 -19 19 -35 39 -35 45 0 6 -18 29 -40
50 -22 21 -40 44 -40 50 0 5 -11 19 -25 29 -14 10 -25 24 -25 30 0 7 -16 27
-35 46 -19 19 -35 38 -35 43 0 6 -18 31 -41 56 -53 60 -59 69 -59 79 0 4 -16
23 -35 42 -19 18 -33 36 -30 38 5 5 -42 63 -90 112 -14 14 -25 30 -25 36 0 6
-9 19 -20 29 -11 10 -18 21 -15 25 2 4 -11 22 -30 40 -19 19 -35 38 -35 42 0
5 -16 22 -35 39 -19 17 -35 37 -35 43 0 7 -11 23 -25 36 -14 13 -25 28 -25 33
0 5 -22 34 -50 66 -27 32 -50 62 -50 67 0 6 -13 23 -30 39 -16 16 -30 33 -30
38 0 6 -16 25 -35 44 -19 19 -35 37 -35 42 0 4 -11 18 -25 31 -14 13 -25 29
-25 35 0 6 -11 22 -25 35 -14 13 -25 29 -25 36 0 7 -11 21 -25 32 -14 11 -25
24 -25 29 0 5 -14 22 -31 39 -17 16 -35 38 -40 49 -22 46 -40 71 -69 96 -16
15 -30 31 -30 36 0 5 -13 22 -30 38 -16 16 -30 34 -30 40 0 6 -11 22 -25 35
-14 13 -25 28 -25 33 0 5 -11 20 -25 33 -14 13 -25 27 -25 32 0 5 -11 19 -25
32 -14 13 -25 29 -25 35 0 6 -18 29 -40 50 -22 21 -40 43 -40 47 0 9 -8 19
-89 109 -28 31 -51 60 -51 66 0 5 -13 22 -30 38 -16 16 -30 33 -30 37 0 5 -9
19 -20 31 -79 90 -100 115 -100 124 0 5 -11 20 -25 33 -14 13 -25 27 -25 32 0
5 -15 23 -32 41 -36 36 -56 63 -64 90 -4 9 -13 17 -20 17 -8 0 -14 5 -14 11 0
12 -35 59 -75 100 -14 14 -25 31 -25 36 0 5 -11 20 -25 33 -14 13 -25 29 -25
35 0 6 -16 26 -35 45 -19 19 -35 41 -35 48 0 6 -5 12 -10 12 -6 0 -15 11 -20
25 -5 14 -16 25 -24 25 -7 0 -16 8 -20 18 -10 30 -54 89 -124 165 -9 11 -16
22 -15 27 1 4 -14 22 -32 40 -19 19 -35 38 -35 42 0 15 -43 68 -56 68 -6 0
-15 8 -18 18 -11 31 -33 63 -65 96 -17 17 -31 37 -31 43 0 6 -10 20 -22 30
-25 21 -46 49 -54 76 -4 9 -13 17 -20 17 -8 0 -14 6 -14 13 0 8 -9 22 -20 32
-11 10 -20 24 -20 32 0 7 -7 13 -15 13 -8 0 -15 7 -15 15 0 10 -11 15 -35 15
-19 0 -35 -4 -35 -9z m-160 -1991 c0 -5 -4 -10 -10 -10 -5 0 -10 5 -10 10 0 6
5 10 10 10 6 0 10 -4 10 -10z"/>
<path d="M0 3395 l0 -3045 730 0 730 0 0 1985 c0 1317 3 1985 10 1985 6 0 10
-11 10 -23 0 -13 3 -27 8 -31 4 -4 8 -11 8 -14 6 -27 18 -52 25 -52 5 0 9 -9
9 -20 0 -11 11 -41 24 -68 22 -42 35 -73 36 -87 0 -3 9 -21 20 -40 11 -20 20
-40 20 -46 0 -12 18 -54 56 -134 13 -28 24 -58 24 -68 0 -9 5 -17 10 -17 6 0
10 -5 10 -11 0 -10 5 -23 44 -111 9 -20 16 -41 16 -47 0 -6 5 -11 10 -11 6 0
10 -9 10 -19 0 -11 11 -41 25 -67 14 -26 25 -55 25 -65 0 -11 5 -19 10 -19 6
0 10 -5 10 -11 0 -10 5 -23 44 -111 9 -20 16 -41 16 -47 0 -6 5 -11 10 -11 6
0 10 -9 10 -19 0 -11 11 -41 25 -67 14 -26 25 -55 25 -65 0 -11 4 -19 10 -19
5 0 12 -17 16 -37 4 -21 10 -40 13 -43 10 -7 41 -76 41 -89 0 -6 11 -30 25
-55 14 -25 25 -51 25 -58 0 -19 23 -68 32 -68 4 0 10 -17 14 -37 4 -21 10 -40
13 -43 10 -7 41 -76 41 -89 0 -6 11 -30 25 -55 14 -25 25 -54 25 -65 0 -12 3
-21 8 -21 10 0 42 -75 42 -100 0 -11 4 -20 9 -20 8 0 21 -29 26 -55 0 -5 12
-32 25 -60 14 -27 25 -54 26 -60 1 -14 16 -49 23 -55 15 -13 31 -52 25 -62 -4
-5 -2 -13 3 -17 11 -7 48 -83 45 -93 -1 -4 6 -22 16 -40 l19 -33 241 -3 242
-2 0 955 c0 630 -3 955 -10 955 -5 0 -10 4 -10 10 0 16 -34 90 -42 90 -4 0
-10 17 -14 38 -4 20 -10 39 -13 42 -10 7 -41 76 -41 89 0 6 -4 11 -10 11 -5 0
-10 8 -10 18 0 10 -18 53 -40 96 -22 42 -40 83 -40 90 0 18 -24 66 -32 66 -5
0 -8 5 -8 11 0 6 -7 27 -16 47 -39 88 -44 101 -44 111 0 6 -3 11 -8 11 -7 0
-42 72 -42 88 0 4 -15 39 -34 77 -19 39 -38 79 -42 90 -4 11 -8 22 -9 25 -2 3
-6 15 -10 28 -4 12 -11 22 -15 22 -8 0 -21 32 -25 60 -4 28 -17 60 -25 60 -4
0 -11 10 -15 23 -4 12 -9 24 -10 27 -1 3 -6 15 -10 28 -4 12 -11 22 -16 22 -5
0 -9 9 -9 20 0 11 -15 48 -33 82 -17 35 -33 68 -33 73 -3 23 -17 55 -25 55 -5
0 -9 5 -9 11 0 13 -31 82 -41 89 -3 3 -9 22 -13 43 -4 20 -10 37 -14 37 -7 0
-42 73 -42 89 0 4 -20 48 -45 97 -25 48 -45 91 -45 96 0 15 -35 88 -42 88 -4
0 -10 17 -14 38 -4 20 -10 39 -13 42 -10 7 -41 76 -41 89 0 6 -3 11 -7 11 -9
0 -33 48 -33 65 0 6 -13 37 -30 68 -17 32 -30 67 -30 78 0 10 -4 19 -10 19 -5
0 -10 9 -10 20 0 11 -4 20 -9 20 -5 0 -12 14 -16 30 -4 17 -11 30 -16 30 -5 0
-9 8 -9 18 0 10 -18 55 -41 100 l-41 82 -889 0 -889 0 0 -3045z"/>
</g>
</svg>
